<svg width="428" height="350" viewBox="0 0 428 350" fill="none" xmlns="http://www.w3.org/2000/svg">
<path d="M429.476 0H-0.0224304V335.272C19.2482 345.155 43.8136 351.175 74.7648 348.54C167.141 340.497 346.667 197.432 429.476 159.832V0Z" fill="#037EEE"/>
<path opacity="0.2" d="M429.475 0H188.297C189.494 48.2727 207.811 94.549 239.98 130.568C272.148 166.587 316.074 190.003 363.914 196.637C389.071 181.029 411.636 167.897 429.475 159.741V0Z" fill="white"/>
<path d="M21.408 233V221.72H26C27.184 221.72 28.096 222.008 28.736 222.584C29.376 223.149 29.696 223.939 29.696 224.952C29.696 225.944 29.376 226.733 28.736 227.32C28.096 227.896 27.184 228.184 26 228.184H22.736V233H21.408ZM22.736 227.08H25.872C26.6933 227.08 27.312 226.893 27.728 226.52C28.1547 226.147 28.368 225.624 28.368 224.952C28.368 224.269 28.1547 223.741 27.728 223.368C27.312 222.995 26.6933 222.808 25.872 222.808H22.736V227.08ZM31.4976 233V226.904C31.4976 226.584 31.487 226.259 31.4656 225.928C31.455 225.597 31.4336 225.277 31.4016 224.968H32.6496L32.8096 226.92L32.5856 226.936C32.6923 226.456 32.879 226.061 33.1456 225.752C33.4123 225.443 33.727 225.213 34.0896 225.064C34.4523 224.904 34.831 224.824 35.2256 224.824C35.3856 224.824 35.5243 224.829 35.6416 224.84C35.7696 224.851 35.887 224.877 35.9936 224.92L35.9776 226.072C35.8176 226.019 35.6683 225.987 35.5296 225.976C35.4016 225.955 35.2523 225.944 35.0816 225.944C34.6123 225.944 34.2016 226.056 33.8496 226.28C33.5083 226.504 33.247 226.792 33.0656 227.144C32.895 227.496 32.8096 227.869 32.8096 228.264V233H31.4976ZM40.5444 233.144C39.7764 233.144 39.1044 232.979 38.5284 232.648C37.963 232.307 37.5257 231.827 37.2164 231.208C36.907 230.579 36.7524 229.837 36.7524 228.984C36.7524 228.12 36.907 227.379 37.2164 226.76C37.5257 226.141 37.963 225.667 38.5284 225.336C39.1044 224.995 39.7764 224.824 40.5444 224.824C41.323 224.824 41.995 224.995 42.5604 225.336C43.1364 225.667 43.579 226.141 43.8884 226.76C44.2084 227.379 44.3684 228.12 44.3684 228.984C44.3684 229.837 44.2084 230.579 43.8884 231.208C43.579 231.827 43.1364 232.307 42.5604 232.648C41.995 232.979 41.323 233.144 40.5444 233.144ZM40.5444 232.088C41.3124 232.088 41.9204 231.827 42.3684 231.304C42.8164 230.771 43.0404 229.997 43.0404 228.984C43.0404 227.96 42.811 227.187 42.3524 226.664C41.9044 226.131 41.3017 225.864 40.5444 225.864C39.787 225.864 39.1844 226.131 38.7364 226.664C38.2884 227.187 38.0644 227.96 38.0644 228.984C38.0644 229.997 38.2884 230.771 38.7364 231.304C39.1844 231.827 39.787 232.088 40.5444 232.088ZM46.7269 233V225.976H45.1589V224.968H47.0789L46.7269 225.304V223.96C46.7269 223.053 46.9562 222.36 47.4149 221.88C47.8735 221.4 48.5295 221.16 49.3829 221.16C49.5962 221.16 49.8149 221.181 50.0389 221.224C50.2735 221.256 50.4655 221.304 50.6149 221.368V222.44C50.4869 222.387 50.3269 222.344 50.1349 222.312C49.9535 222.269 49.7669 222.248 49.5749 222.248C49.2442 222.248 48.9615 222.317 48.7269 222.456C48.4922 222.584 48.3162 222.781 48.1989 223.048C48.0815 223.315 48.0229 223.656 48.0229 224.072V225.24L47.8149 224.968H50.2629V225.976H48.0229V233H46.7269ZM55.0664 233.144C53.8077 233.144 52.8157 232.781 52.0904 232.056C51.365 231.32 51.0024 230.301 51.0024 229C51.0024 228.157 51.1624 227.427 51.4824 226.808C51.8024 226.179 52.2504 225.693 52.8264 225.352C53.4024 225 54.0637 224.824 54.8104 224.824C55.5464 224.824 56.165 224.979 56.6664 225.288C57.1677 225.597 57.5517 226.04 57.8184 226.616C58.085 227.181 58.2184 227.853 58.2184 228.632V229.112H51.9944V228.296H57.3704L57.0984 228.504C57.0984 227.651 56.9064 226.984 56.5224 226.504C56.1384 226.024 55.5677 225.784 54.8104 225.784C54.0104 225.784 53.3864 226.067 52.9384 226.632C52.4904 227.187 52.2664 227.939 52.2664 228.888V229.032C52.2664 230.035 52.5117 230.797 53.0024 231.32C53.5037 231.832 54.2024 232.088 55.0984 232.088C55.5784 232.088 56.0264 232.019 56.4424 231.88C56.869 231.731 57.2744 231.491 57.6584 231.16L58.1064 232.072C57.7544 232.413 57.3064 232.68 56.7624 232.872C56.229 233.053 55.6637 233.144 55.0664 233.144ZM62.8735 233.144C62.2335 233.144 61.6362 233.059 61.0815 232.888C60.5268 232.707 60.0682 232.456 59.7055 232.136L60.1535 231.224C60.5482 231.533 60.9748 231.763 61.4335 231.912C61.9028 232.061 62.3882 232.136 62.8895 232.136C63.5295 232.136 64.0095 232.024 64.3295 231.8C64.6602 231.565 64.8255 231.245 64.8255 230.84C64.8255 230.531 64.7188 230.285 64.5055 230.104C64.3028 229.912 63.9668 229.763 63.4975 229.656L62.0095 229.352C61.3268 229.203 60.8148 228.952 60.4735 228.6C60.1322 228.237 59.9615 227.779 59.9615 227.224C59.9615 226.755 60.0842 226.344 60.3295 225.992C60.5748 225.629 60.9322 225.347 61.4015 225.144C61.8708 224.931 62.4202 224.824 63.0495 224.824C63.6362 224.824 64.1748 224.915 64.6655 225.096C65.1668 225.267 65.5828 225.517 65.9135 225.848L65.4495 226.744C65.1295 226.435 64.7615 226.205 64.3455 226.056C63.9402 225.896 63.5188 225.816 63.0815 225.816C62.4522 225.816 61.9775 225.944 61.6575 226.2C61.3482 226.445 61.1935 226.771 61.1935 227.176C61.1935 227.485 61.2895 227.741 61.4815 227.944C61.6842 228.136 61.9935 228.28 62.4095 228.376L63.8975 228.68C64.6228 228.84 65.1615 229.091 65.5135 229.432C65.8762 229.763 66.0575 230.211 66.0575 230.776C66.0575 231.256 65.9242 231.677 65.6575 232.04C65.3908 232.392 65.0175 232.664 64.5375 232.856C64.0682 233.048 63.5135 233.144 62.8735 233.144ZM70.811 233.144C70.171 233.144 69.5737 233.059 69.019 232.888C68.4643 232.707 68.0057 232.456 67.643 232.136L68.091 231.224C68.4857 231.533 68.9123 231.763 69.371 231.912C69.8403 232.061 70.3257 232.136 70.827 232.136C71.467 232.136 71.947 232.024 72.267 231.8C72.5977 231.565 72.763 231.245 72.763 230.84C72.763 230.531 72.6563 230.285 72.443 230.104C72.2403 229.912 71.9043 229.763 71.435 229.656L69.947 229.352C69.2643 229.203 68.7523 228.952 68.411 228.6C68.0697 228.237 67.899 227.779 67.899 227.224C67.899 226.755 68.0217 226.344 68.267 225.992C68.5123 225.629 68.8697 225.347 69.339 225.144C69.8083 224.931 70.3577 224.824 70.987 224.824C71.5737 224.824 72.1123 224.915 72.603 225.096C73.1043 225.267 73.5203 225.517 73.851 225.848L73.387 226.744C73.067 226.435 72.699 226.205 72.283 226.056C71.8777 225.896 71.4563 225.816 71.019 225.816C70.3897 225.816 69.915 225.944 69.595 226.2C69.2857 226.445 69.131 226.771 69.131 227.176C69.131 227.485 69.227 227.741 69.419 227.944C69.6217 228.136 69.931 228.28 70.347 228.376L71.835 228.68C72.5603 228.84 73.099 229.091 73.451 229.432C73.8137 229.763 73.995 230.211 73.995 230.776C73.995 231.256 73.8617 231.677 73.595 232.04C73.3283 232.392 72.955 232.664 72.475 232.856C72.0057 233.048 71.451 233.144 70.811 233.144ZM76.0765 233V224.968H77.3725V233H76.0765ZM75.9165 223.144V221.688H77.5165V223.144H75.9165ZM83.185 233.144C82.417 233.144 81.745 232.979 81.169 232.648C80.6037 232.307 80.1663 231.827 79.857 231.208C79.5477 230.579 79.393 229.837 79.393 228.984C79.393 228.12 79.5477 227.379 79.857 226.76C80.1663 226.141 80.6037 225.667 81.169 225.336C81.745 224.995 82.417 224.824 83.185 224.824C83.9637 224.824 84.6357 224.995 85.201 225.336C85.777 225.667 86.2197 226.141 86.529 226.76C86.849 227.379 87.009 228.12 87.009 228.984C87.009 229.837 86.849 230.579 86.529 231.208C86.2197 231.827 85.777 232.307 85.201 232.648C84.6357 232.979 83.9637 233.144 83.185 233.144ZM83.185 232.088C83.953 232.088 84.561 231.827 85.009 231.304C85.457 230.771 85.681 229.997 85.681 228.984C85.681 227.96 85.4517 227.187 84.993 226.664C84.545 226.131 83.9423 225.864 83.185 225.864C82.4277 225.864 81.825 226.131 81.377 226.664C80.929 227.187 80.705 227.96 80.705 228.984C80.705 229.997 80.929 230.771 81.377 231.304C81.825 231.827 82.4277 232.088 83.185 232.088ZM89.0296 233V226.824C89.0296 226.525 89.0136 226.221 88.9816 225.912C88.9603 225.592 88.9336 225.277 88.9016 224.968H90.1496L90.3096 226.728H90.1176C90.3523 226.109 90.7256 225.64 91.2376 225.32C91.7603 224.989 92.363 224.824 93.0456 224.824C93.995 224.824 94.7096 225.08 95.1896 225.592C95.6803 226.093 95.9256 226.888 95.9256 227.976V233H94.6296V228.056C94.6296 227.299 94.475 226.749 94.1656 226.408C93.867 226.056 93.3976 225.88 92.7576 225.88C92.011 225.88 91.419 226.109 90.9816 226.568C90.5443 227.027 90.3256 227.64 90.3256 228.408V233H89.0296ZM101.461 233.144C100.746 233.144 100.122 232.979 99.5886 232.648C99.0553 232.307 98.6393 231.827 98.3406 231.208C98.0526 230.589 97.9086 229.848 97.9086 228.984C97.9086 228.109 98.0526 227.363 98.3406 226.744C98.6393 226.125 99.0553 225.651 99.5886 225.32C100.122 224.989 100.746 224.824 101.461 224.824C102.186 224.824 102.81 225.011 103.333 225.384C103.866 225.747 104.218 226.243 104.389 226.872H104.197L104.373 224.968H105.621C105.589 225.277 105.557 225.592 105.525 225.912C105.503 226.221 105.493 226.525 105.493 226.824V233H104.197V231.112H104.373C104.202 231.741 103.85 232.237 103.317 232.6C102.783 232.963 102.165 233.144 101.461 233.144ZM101.717 232.088C102.485 232.088 103.093 231.827 103.541 231.304C103.989 230.771 104.213 229.997 104.213 228.984C104.213 227.96 103.989 227.187 103.541 226.664C103.093 226.131 102.485 225.864 101.717 225.864C100.959 225.864 100.351 226.131 99.8926 226.664C99.4446 227.187 99.2206 227.96 99.2206 228.984C99.2206 229.997 99.4446 230.771 99.8926 231.304C100.351 231.827 100.959 232.088 101.717 232.088ZM107.998 233V221.224H109.294V233H107.998ZM115.007 233L119.983 221.72H121.135L126.191 233H124.815L123.407 229.784L123.999 230.12H117.103L117.743 229.784L116.367 233H115.007ZM120.543 223.24L117.951 229.32L117.567 229.032H123.519L123.231 229.32L120.575 223.24H120.543ZM127.748 236.456V226.824C127.748 226.525 127.732 226.221 127.7 225.912C127.679 225.592 127.652 225.277 127.62 224.968H128.868L129.044 226.872H128.852C129.023 226.243 129.37 225.747 129.892 225.384C130.415 225.011 131.039 224.824 131.764 224.824C132.49 224.824 133.114 224.989 133.636 225.32C134.17 225.651 134.586 226.125 134.884 226.744C135.183 227.363 135.332 228.109 135.332 228.984C135.332 229.848 135.183 230.589 134.884 231.208C134.596 231.827 134.186 232.307 133.652 232.648C133.119 232.979 132.49 233.144 131.764 233.144C131.05 233.144 130.431 232.963 129.908 232.6C129.386 232.237 129.039 231.741 128.868 231.112H129.044V236.456H127.748ZM131.508 232.088C132.276 232.088 132.884 231.827 133.332 231.304C133.791 230.771 134.02 229.997 134.02 228.984C134.02 227.96 133.791 227.187 133.332 226.664C132.884 226.131 132.276 225.864 131.508 225.864C130.751 225.864 130.143 226.131 129.684 226.664C129.236 227.187 129.012 227.96 129.012 228.984C129.012 229.997 129.236 230.771 129.684 231.304C130.143 231.827 130.751 232.088 131.508 232.088ZM137.342 236.456V226.824C137.342 226.525 137.326 226.221 137.294 225.912C137.273 225.592 137.246 225.277 137.214 224.968H138.462L138.638 226.872H138.446C138.617 226.243 138.963 225.747 139.486 225.384C140.009 225.011 140.633 224.824 141.358 224.824C142.083 224.824 142.707 224.989 143.23 225.32C143.763 225.651 144.179 226.125 144.478 226.744C144.777 227.363 144.926 228.109 144.926 228.984C144.926 229.848 144.777 230.589 144.478 231.208C144.19 231.827 143.779 232.307 143.246 232.648C142.713 232.979 142.083 233.144 141.358 233.144C140.643 233.144 140.025 232.963 139.502 232.6C138.979 232.237 138.633 231.741 138.462 231.112H138.638V236.456H137.342ZM141.102 232.088C141.87 232.088 142.478 231.827 142.926 231.304C143.385 230.771 143.614 229.997 143.614 228.984C143.614 227.96 143.385 227.187 142.926 226.664C142.478 226.131 141.87 225.864 141.102 225.864C140.345 225.864 139.737 226.131 139.278 226.664C138.83 227.187 138.606 227.96 138.606 228.984C138.606 229.997 138.83 230.771 139.278 231.304C139.737 231.827 140.345 232.088 141.102 232.088ZM151.524 233V225.976H149.956V224.968H151.876L151.524 225.304V223.96C151.524 223.053 151.753 222.36 152.212 221.88C152.67 221.4 153.326 221.16 154.18 221.16C154.393 221.16 154.612 221.181 154.836 221.224C155.07 221.256 155.262 221.304 155.412 221.368V222.44C155.284 222.387 155.124 222.344 154.932 222.312C154.75 222.269 154.564 222.248 154.372 222.248C154.041 222.248 153.758 222.317 153.524 222.456C153.289 222.584 153.113 222.781 152.996 223.048C152.878 223.315 152.82 223.656 152.82 224.072V225.24L152.612 224.968H155.06V225.976H152.82V233H151.524ZM159.591 233.144C158.823 233.144 158.151 232.979 157.575 232.648C157.01 232.307 156.573 231.827 156.263 231.208C155.954 230.579 155.799 229.837 155.799 228.984C155.799 228.12 155.954 227.379 156.263 226.76C156.573 226.141 157.01 225.667 157.575 225.336C158.151 224.995 158.823 224.824 159.591 224.824C160.37 224.824 161.042 224.995 161.607 225.336C162.183 225.667 162.626 226.141 162.935 226.76C163.255 227.379 163.415 228.12 163.415 228.984C163.415 229.837 163.255 230.579 162.935 231.208C162.626 231.827 162.183 232.307 161.607 232.648C161.042 232.979 160.37 233.144 159.591 233.144ZM159.591 232.088C160.359 232.088 160.967 231.827 161.415 231.304C161.863 230.771 162.087 229.997 162.087 228.984C162.087 227.96 161.858 227.187 161.399 226.664C160.951 226.131 160.349 225.864 159.591 225.864C158.834 225.864 158.231 226.131 157.783 226.664C157.335 227.187 157.111 227.96 157.111 228.984C157.111 229.997 157.335 230.771 157.783 231.304C158.231 231.827 158.834 232.088 159.591 232.088ZM165.404 233V226.904C165.404 226.584 165.393 226.259 165.372 225.928C165.361 225.597 165.34 225.277 165.308 224.968H166.556L166.716 226.92L166.492 226.936C166.599 226.456 166.785 226.061 167.052 225.752C167.319 225.443 167.633 225.213 167.996 225.064C168.359 224.904 168.737 224.824 169.132 224.824C169.292 224.824 169.431 224.829 169.548 224.84C169.676 224.851 169.793 224.877 169.9 224.92L169.884 226.072C169.724 226.019 169.575 225.987 169.436 225.976C169.308 225.955 169.159 225.944 168.988 225.944C168.519 225.944 168.108 226.056 167.756 226.28C167.415 226.504 167.153 226.792 166.972 227.144C166.801 227.496 166.716 227.869 166.716 228.264V233H165.404ZM175.1 236.632L174.796 235.56C175.298 235.443 175.714 235.304 176.044 235.144C176.386 234.995 176.668 234.792 176.892 234.536C177.116 234.28 177.308 233.96 177.468 233.576L177.884 232.632L177.852 233.176L174.348 224.968H175.756L178.652 232.024H178.236L181.1 224.968H182.46L178.748 233.672C178.535 234.184 178.3 234.611 178.044 234.952C177.788 235.304 177.511 235.587 177.212 235.8C176.924 236.024 176.604 236.2 176.252 236.328C175.9 236.456 175.516 236.557 175.1 236.632ZM187.107 233.144C186.339 233.144 185.667 232.979 185.091 232.648C184.526 232.307 184.088 231.827 183.779 231.208C183.47 230.579 183.315 229.837 183.315 228.984C183.315 228.12 183.47 227.379 183.779 226.76C184.088 226.141 184.526 225.667 185.091 225.336C185.667 224.995 186.339 224.824 187.107 224.824C187.886 224.824 188.558 224.995 189.123 225.336C189.699 225.667 190.142 226.141 190.451 226.76C190.771 227.379 190.931 228.12 190.931 228.984C190.931 229.837 190.771 230.579 190.451 231.208C190.142 231.827 189.699 232.307 189.123 232.648C188.558 232.979 187.886 233.144 187.107 233.144ZM187.107 232.088C187.875 232.088 188.483 231.827 188.931 231.304C189.379 230.771 189.603 229.997 189.603 228.984C189.603 227.96 189.374 227.187 188.915 226.664C188.467 226.131 187.864 225.864 187.107 225.864C186.35 225.864 185.747 226.131 185.299 226.664C184.851 227.187 184.627 227.96 184.627 228.984C184.627 229.997 184.851 230.771 185.299 231.304C185.747 231.827 186.35 232.088 187.107 232.088ZM195.784 233.144C194.834 233.144 194.114 232.883 193.624 232.36C193.144 231.837 192.904 231.037 192.904 229.96V224.968H194.2V229.928C194.2 230.664 194.349 231.208 194.648 231.56C194.946 231.901 195.41 232.072 196.04 232.072C196.744 232.072 197.309 231.843 197.736 231.384C198.162 230.925 198.376 230.312 198.376 229.544V224.968H199.672V233H198.408V231.192H198.616C198.392 231.811 198.029 232.291 197.528 232.632C197.037 232.973 196.456 233.144 195.784 233.144ZM202.154 233V226.904C202.154 226.584 202.143 226.259 202.122 225.928C202.111 225.597 202.09 225.277 202.058 224.968H203.306L203.466 226.92L203.242 226.936C203.349 226.456 203.535 226.061 203.802 225.752C204.069 225.443 204.383 225.213 204.746 225.064C205.109 224.904 205.487 224.824 205.882 224.824C206.042 224.824 206.181 224.829 206.298 224.84C206.426 224.851 206.543 224.877 206.65 224.92L206.634 226.072C206.474 226.019 206.325 225.987 206.186 225.976C206.058 225.955 205.909 225.944 205.738 225.944C205.269 225.944 204.858 226.056 204.506 226.28C204.165 226.504 203.903 226.792 203.722 227.144C203.551 227.496 203.466 227.869 203.466 228.264V233H202.154ZM29.216 256.056C28.9067 255.853 28.5867 255.592 28.256 255.272C27.9253 254.952 27.6107 254.595 27.312 254.2C27.024 253.805 26.7733 253.411 26.56 253.016L27.728 252.584C28.0053 253.139 28.3627 253.64 28.8 254.088C29.2373 254.547 29.68 254.941 30.128 255.272L29.216 256.056ZM20.992 247.352C20.992 246.157 21.1947 245.133 21.6 244.28C22.016 243.416 22.608 242.749 23.376 242.28C24.1547 241.811 25.088 241.576 26.176 241.576C27.232 241.576 28.1493 241.811 28.928 242.28C29.7067 242.749 30.304 243.416 30.72 244.28C31.1467 245.133 31.36 246.152 31.36 247.336C31.36 248.531 31.1467 249.56 30.72 250.424C30.2933 251.288 29.6907 251.96 28.912 252.44C28.144 252.909 27.232 253.144 26.176 253.144C25.088 253.144 24.16 252.909 23.392 252.44C22.624 251.96 22.032 251.288 21.616 250.424C21.2 249.56 20.992 248.536 20.992 247.352ZM22.384 247.352C22.384 248.803 22.704 249.939 23.344 250.76C23.984 251.571 24.928 251.976 26.176 251.976C27.3707 251.976 28.2987 251.571 28.96 250.76C29.632 249.939 29.968 248.803 29.968 247.352C29.968 245.891 29.6373 244.76 28.976 243.96C28.3147 243.149 27.3813 242.744 26.176 242.744C24.928 242.744 23.984 243.149 23.344 243.96C22.704 244.76 22.384 245.891 22.384 247.352ZM36.4554 253.144C35.506 253.144 34.786 252.883 34.2954 252.36C33.8154 251.837 33.5754 251.037 33.5754 249.96V244.968H34.8714V249.928C34.8714 250.664 35.0207 251.208 35.3194 251.56C35.618 251.901 36.082 252.072 36.7114 252.072C37.4154 252.072 37.9807 251.843 38.4074 251.384C38.834 250.925 39.0474 250.312 39.0474 249.544V244.968H40.3434V253H39.0794V251.192H39.2874C39.0634 251.811 38.7007 252.291 38.1994 252.632C37.7087 252.973 37.1274 253.144 36.4554 253.144ZM46.4258 253.144C45.1671 253.144 44.1751 252.781 43.4498 252.056C42.7244 251.32 42.3618 250.301 42.3618 249C42.3618 248.157 42.5218 247.427 42.8418 246.808C43.1618 246.179 43.6098 245.693 44.1858 245.352C44.7618 245 45.4231 244.824 46.1698 244.824C46.9058 244.824 47.5244 244.979 48.0258 245.288C48.5271 245.597 48.9111 246.04 49.1778 246.616C49.4444 247.181 49.5778 247.853 49.5778 248.632V249.112H43.3538V248.296H48.7298L48.4578 248.504C48.4578 247.651 48.2658 246.984 47.8818 246.504C47.4978 246.024 46.9271 245.784 46.1698 245.784C45.3698 245.784 44.7458 246.067 44.2978 246.632C43.8498 247.187 43.6258 247.939 43.6258 248.888V249.032C43.6258 250.035 43.8711 250.797 44.3618 251.32C44.8631 251.832 45.5618 252.088 46.4578 252.088C46.9378 252.088 47.3858 252.019 47.8018 251.88C48.2284 251.731 48.6338 251.491 49.0178 251.16L49.4658 252.072C49.1138 252.413 48.6658 252.68 48.1218 252.872C47.5884 253.053 47.0231 253.144 46.4258 253.144ZM51.5289 253V246.904C51.5289 246.584 51.5182 246.259 51.4969 245.928C51.4862 245.597 51.4649 245.277 51.4329 244.968H52.6809L52.8409 246.92L52.6169 246.936C52.7235 246.456 52.9102 246.061 53.1769 245.752C53.4435 245.443 53.7582 245.213 54.1209 245.064C54.4835 244.904 54.8622 244.824 55.2569 244.824C55.4169 244.824 55.5555 244.829 55.6729 244.84C55.8009 244.851 55.9182 244.877 56.0249 244.92L56.0089 246.072C55.8489 246.019 55.6995 245.987 55.5609 245.976C55.4329 245.955 55.2835 245.944 55.1129 245.944C54.6435 245.944 54.2329 246.056 53.8809 246.28C53.5395 246.504 53.2782 246.792 53.0969 247.144C52.9262 247.496 52.8409 247.869 52.8409 248.264V253H51.5289ZM57.5378 256.632L57.2338 255.56C57.7351 255.443 58.1511 255.304 58.4818 255.144C58.8231 254.995 59.1058 254.792 59.3298 254.536C59.5538 254.28 59.7458 253.96 59.9058 253.576L60.3218 252.632L60.2898 253.176L56.7858 244.968H58.1938L61.0898 252.024H60.6738L63.5378 244.968H64.8978L61.1858 253.672C60.9724 254.184 60.7378 254.611 60.4818 254.952C60.2258 255.304 59.9484 255.587 59.6498 255.8C59.3618 256.024 59.0418 256.2 58.6898 256.328C58.3378 256.456 57.9538 256.557 57.5378 256.632ZM74.3536 253.144C73.447 253.144 72.6363 253.027 71.9216 252.792C71.207 252.557 70.583 252.221 70.0496 251.784L70.5296 250.728C70.903 251.005 71.2763 251.24 71.6496 251.432C72.0336 251.613 72.4443 251.752 72.8816 251.848C73.319 251.933 73.8096 251.976 74.3536 251.976C75.303 251.976 76.007 251.8 76.4656 251.448C76.9243 251.096 77.1536 250.627 77.1536 250.04C77.1536 249.539 76.9936 249.155 76.6736 248.888C76.3536 248.621 75.7936 248.408 74.9936 248.248L73.3136 247.912C72.279 247.699 71.5056 247.352 70.9936 246.872C70.4923 246.392 70.2416 245.741 70.2416 244.92C70.2416 244.248 70.4123 243.661 70.7536 243.16C71.1056 242.659 71.5963 242.269 72.2256 241.992C72.855 241.715 73.5856 241.576 74.4176 241.576C75.2176 241.576 75.9483 241.699 76.6096 241.944C77.271 242.179 77.8363 242.525 78.3056 242.984L77.8416 244.008C77.3403 243.56 76.8123 243.24 76.2576 243.048C75.7136 242.845 75.095 242.744 74.4016 242.744C73.527 242.744 72.8336 242.936 72.3216 243.32C71.8203 243.693 71.5696 244.205 71.5696 244.856C71.5696 245.379 71.7296 245.789 72.0496 246.088C72.3696 246.376 72.8976 246.595 73.6336 246.744L75.3296 247.08C76.4176 247.304 77.2176 247.64 77.7296 248.088C78.2416 248.536 78.4976 249.165 78.4976 249.976C78.4976 250.595 78.327 251.144 77.9856 251.624C77.655 252.104 77.1803 252.477 76.5616 252.744C75.943 253.011 75.207 253.144 74.3536 253.144ZM83.7944 253.144C83.0264 253.144 82.3544 252.979 81.7784 252.648C81.213 252.307 80.7757 251.827 80.4664 251.208C80.157 250.579 80.0024 249.837 80.0024 248.984C80.0024 248.12 80.157 247.379 80.4664 246.76C80.7757 246.141 81.213 245.667 81.7784 245.336C82.3544 244.995 83.0264 244.824 83.7944 244.824C84.573 244.824 85.245 244.995 85.8104 245.336C86.3864 245.667 86.829 246.141 87.1384 246.76C87.4584 247.379 87.6184 248.12 87.6184 248.984C87.6184 249.837 87.4584 250.579 87.1384 251.208C86.829 251.827 86.3864 252.307 85.8104 252.648C85.245 252.979 84.573 253.144 83.7944 253.144ZM83.7944 252.088C84.5624 252.088 85.1704 251.827 85.6184 251.304C86.0664 250.771 86.2904 249.997 86.2904 248.984C86.2904 247.96 86.061 247.187 85.6024 246.664C85.1544 246.131 84.5517 245.864 83.7944 245.864C83.037 245.864 82.4344 246.131 81.9864 246.664C81.5384 247.187 81.3144 247.96 81.3144 248.984C81.3144 249.997 81.5384 250.771 81.9864 251.304C82.4344 251.827 83.037 252.088 83.7944 252.088ZM89.639 253V241.224H90.935V253H89.639ZM96.2835 253.144C95.3342 253.144 94.6142 252.883 94.1235 252.36C93.6435 251.837 93.4035 251.037 93.4035 249.96V244.968H94.6995V249.928C94.6995 250.664 94.8488 251.208 95.1475 251.56C95.4462 251.901 95.9102 252.072 96.5395 252.072C97.2435 252.072 97.8088 251.843 98.2355 251.384C98.6622 250.925 98.8755 250.312 98.8755 249.544V244.968H100.172V253H98.9075V251.192H99.1155C98.8915 251.811 98.5288 252.291 98.0275 252.632C97.5368 252.973 96.9555 253.144 96.2835 253.144ZM105.534 253.144C104.745 253.144 104.142 252.92 103.726 252.472C103.31 252.013 103.102 251.325 103.102 250.408V245.976H101.534V244.968H103.102V242.776L104.398 242.408V244.968H106.702V245.976H104.398V250.264C104.398 250.904 104.505 251.363 104.718 251.64C104.942 251.907 105.273 252.04 105.71 252.04C105.913 252.04 106.094 252.024 106.254 251.992C106.414 251.949 106.558 251.901 106.686 251.848V252.936C106.537 253 106.355 253.048 106.142 253.08C105.939 253.123 105.737 253.144 105.534 253.144ZM108.28 253V244.968H109.576V253H108.28ZM108.12 243.144V241.688H109.72V243.144H108.12ZM115.388 253.144C114.62 253.144 113.948 252.979 113.372 252.648C112.807 252.307 112.369 251.827 112.06 251.208C111.751 250.579 111.596 249.837 111.596 248.984C111.596 248.12 111.751 247.379 112.06 246.76C112.369 246.141 112.807 245.667 113.372 245.336C113.948 244.995 114.62 244.824 115.388 244.824C116.167 244.824 116.839 244.995 117.404 245.336C117.98 245.667 118.423 246.141 118.732 246.76C119.052 247.379 119.212 248.12 119.212 248.984C119.212 249.837 119.052 250.579 118.732 251.208C118.423 251.827 117.98 252.307 117.404 252.648C116.839 252.979 116.167 253.144 115.388 253.144ZM115.388 252.088C116.156 252.088 116.764 251.827 117.212 251.304C117.66 250.771 117.884 249.997 117.884 248.984C117.884 247.96 117.655 247.187 117.196 246.664C116.748 246.131 116.145 245.864 115.388 245.864C114.631 245.864 114.028 246.131 113.58 246.664C113.132 247.187 112.908 247.96 112.908 248.984C112.908 249.997 113.132 250.771 113.58 251.304C114.028 251.827 114.631 252.088 115.388 252.088ZM121.233 253V246.824C121.233 246.525 121.217 246.221 121.185 245.912C121.163 245.592 121.137 245.277 121.105 244.968H122.353L122.513 246.728H122.321C122.555 246.109 122.929 245.64 123.441 245.32C123.963 244.989 124.566 244.824 125.249 244.824C126.198 244.824 126.913 245.08 127.393 245.592C127.883 246.093 128.129 246.888 128.129 247.976V253H126.833V248.056C126.833 247.299 126.678 246.749 126.369 246.408C126.07 246.056 125.601 245.88 124.961 245.88C124.214 245.88 123.622 246.109 123.185 246.568C122.747 247.027 122.529 247.64 122.529 248.408V253H121.233Z" fill="white"/>
<line x1="20" y1="209.5" x2="253" y2="209.5" stroke="white"/>
<path d="M31.704 195.28C29.4827 195.28 27.616 194.869 26.104 194.048C24.592 193.227 23.4533 192.06 22.688 190.548C21.9227 189.036 21.54 187.244 21.54 185.172C21.54 183.081 21.9507 181.28 22.772 179.768C23.5933 178.237 24.7693 177.061 26.3 176.24C27.8493 175.4 29.7067 174.98 31.872 174.98C33.3093 174.98 34.5693 175.176 35.652 175.568C36.7347 175.941 37.6867 176.492 38.508 177.22L37.304 180.02C36.7067 179.553 36.1373 179.18 35.596 178.9C35.0547 178.62 34.4947 178.424 33.916 178.312C33.3373 178.181 32.6653 178.116 31.9 178.116C29.7347 178.116 28.092 178.732 26.972 179.964C25.8707 181.177 25.32 182.923 25.32 185.2C25.32 187.477 25.8427 189.213 26.888 190.408C27.952 191.603 29.6133 192.2 31.872 192.2C32.6373 192.2 33.4027 192.125 34.168 191.976C34.952 191.827 35.7173 191.612 36.464 191.332L35.792 192.844V186.936H31.172V184.304H38.788V193.796C37.8733 194.263 36.7813 194.627 35.512 194.888C34.2427 195.149 32.9733 195.28 31.704 195.28ZM49.0146 195.28C47.5586 195.28 46.2986 194.981 45.2346 194.384C44.1706 193.787 43.3399 192.937 42.7426 191.836C42.1639 190.735 41.8746 189.428 41.8746 187.916C41.8746 186.404 42.1639 185.107 42.7426 184.024C43.3399 182.923 44.1706 182.073 45.2346 181.476C46.2986 180.879 47.5586 180.58 49.0146 180.58C50.4706 180.58 51.7306 180.879 52.7946 181.476C53.8772 182.073 54.7079 182.923 55.2866 184.024C55.8839 185.107 56.1826 186.404 56.1826 187.916C56.1826 189.428 55.8839 190.735 55.2866 191.836C54.7079 192.937 53.8772 193.787 52.7946 194.384C51.7306 194.981 50.4706 195.28 49.0146 195.28ZM49.0146 192.592C50.1159 192.592 50.9932 192.209 51.6466 191.444C52.2999 190.66 52.6266 189.484 52.6266 187.916C52.6266 186.348 52.2999 185.181 51.6466 184.416C50.9932 183.651 50.1159 183.268 49.0146 183.268C47.9132 183.268 47.0359 183.651 46.3826 184.416C45.7292 185.181 45.4026 186.348 45.4026 187.916C45.4026 189.484 45.7292 190.66 46.3826 191.444C47.0359 192.209 47.9132 192.592 49.0146 192.592ZM65.5849 195.28C64.1289 195.28 62.8689 194.981 61.8049 194.384C60.7409 193.787 59.9102 192.937 59.3129 191.836C58.7342 190.735 58.4449 189.428 58.4449 187.916C58.4449 186.404 58.7342 185.107 59.3129 184.024C59.9102 182.923 60.7409 182.073 61.8049 181.476C62.8689 180.879 64.1289 180.58 65.5849 180.58C67.0409 180.58 68.3009 180.879 69.3649 181.476C70.4475 182.073 71.2782 182.923 71.8569 184.024C72.4542 185.107 72.7529 186.404 72.7529 187.916C72.7529 189.428 72.4542 190.735 71.8569 191.836C71.2782 192.937 70.4475 193.787 69.3649 194.384C68.3009 194.981 67.0409 195.28 65.5849 195.28ZM65.5849 192.592C66.6862 192.592 67.5635 192.209 68.2169 191.444C68.8702 190.66 69.1969 189.484 69.1969 187.916C69.1969 186.348 68.8702 185.181 68.2169 184.416C67.5635 183.651 66.6862 183.268 65.5849 183.268C64.4835 183.268 63.6062 183.651 62.9529 184.416C62.2995 185.181 61.9729 186.348 61.9729 187.916C61.9729 189.484 62.2995 190.66 62.9529 191.444C63.6062 192.209 64.4835 192.592 65.5849 192.592ZM82.3232 201.272C81.0165 201.272 79.8312 201.132 78.7672 200.852C77.7219 200.572 76.7885 200.143 75.9672 199.564L76.7232 197.044C77.2645 197.399 77.8245 197.688 78.4032 197.912C78.9819 198.136 79.5792 198.304 80.1952 198.416C80.8112 198.528 81.4365 198.584 82.0712 198.584C83.3779 198.584 84.3485 198.257 84.9832 197.604C85.6365 196.969 85.9632 196.055 85.9632 194.86V191.472H86.2432C85.9445 192.443 85.3379 193.217 84.4232 193.796C83.5272 194.375 82.4912 194.664 81.3152 194.664C80.0459 194.664 78.9352 194.384 77.9832 193.824C77.0499 193.245 76.3219 192.424 75.7992 191.36C75.2765 190.296 75.0152 189.045 75.0152 187.608C75.0152 186.171 75.2765 184.929 75.7992 183.884C76.3219 182.82 77.0499 182.008 77.9832 181.448C78.9352 180.869 80.0459 180.58 81.3152 180.58C82.5099 180.58 83.5459 180.869 84.4232 181.448C85.3192 182.008 85.9165 182.773 86.2152 183.744L85.9632 183.576L86.2432 180.86H89.6312C89.5565 181.439 89.5005 182.027 89.4632 182.624C89.4259 183.221 89.4072 183.809 89.4072 184.388V194.44C89.4072 196.661 88.8005 198.351 87.5872 199.508C86.3925 200.684 84.6379 201.272 82.3232 201.272ZM82.2672 191.976C83.3872 191.976 84.2739 191.603 84.9272 190.856C85.5992 190.091 85.9352 189.008 85.9352 187.608C85.9352 186.208 85.5992 185.135 84.9272 184.388C84.2739 183.641 83.3872 183.268 82.2672 183.268C81.1285 183.268 80.2232 183.641 79.5512 184.388C78.8792 185.135 78.5432 186.208 78.5432 187.608C78.5432 189.008 78.8792 190.091 79.5512 190.856C80.2232 191.603 81.1285 191.976 82.2672 191.976ZM93.1892 195V174.392H96.6892V195H93.1892ZM107.322 195.28C104.951 195.28 103.094 194.627 101.75 193.32C100.406 192.013 99.7339 190.221 99.7339 187.944C99.7339 186.469 100.023 185.181 100.602 184.08C101.181 182.979 101.983 182.12 103.01 181.504C104.055 180.888 105.269 180.58 106.65 180.58C108.013 180.58 109.151 180.869 110.066 181.448C110.981 182.027 111.671 182.839 112.138 183.884C112.623 184.929 112.866 186.152 112.866 187.552V188.476H102.562V186.628H110.374L109.898 187.02C109.898 185.713 109.618 184.715 109.058 184.024C108.517 183.333 107.723 182.988 106.678 182.988C105.521 182.988 104.625 183.399 103.99 184.22C103.374 185.041 103.066 186.189 103.066 187.664V188.028C103.066 189.559 103.439 190.707 104.186 191.472C104.951 192.219 106.025 192.592 107.406 192.592C108.209 192.592 108.955 192.489 109.646 192.284C110.355 192.06 111.027 191.705 111.662 191.22L112.698 193.572C112.026 194.113 111.223 194.533 110.29 194.832C109.357 195.131 108.367 195.28 107.322 195.28ZM133.313 195.28C131.092 195.28 129.225 194.869 127.713 194.048C126.201 193.227 125.063 192.06 124.297 190.548C123.532 189.036 123.149 187.244 123.149 185.172C123.149 183.081 123.56 181.28 124.381 179.768C125.203 178.237 126.379 177.061 127.909 176.24C129.459 175.4 131.316 174.98 133.481 174.98C134.919 174.98 136.179 175.176 137.261 175.568C138.344 175.941 139.296 176.492 140.117 177.22L138.913 180.02C138.316 179.553 137.747 179.18 137.205 178.9C136.664 178.62 136.104 178.424 135.525 178.312C134.947 178.181 134.275 178.116 133.509 178.116C131.344 178.116 129.701 178.732 128.581 179.964C127.48 181.177 126.929 182.923 126.929 185.2C126.929 187.477 127.452 189.213 128.497 190.408C129.561 191.603 131.223 192.2 133.481 192.2C134.247 192.2 135.012 192.125 135.777 191.976C136.561 191.827 137.327 191.612 138.073 191.332L137.401 192.844V186.936H132.781V184.304H140.397V193.796C139.483 194.263 138.391 194.627 137.121 194.888C135.852 195.149 134.583 195.28 133.313 195.28ZM151.072 195.28C148.701 195.28 146.844 194.627 145.5 193.32C144.156 192.013 143.484 190.221 143.484 187.944C143.484 186.469 143.773 185.181 144.352 184.08C144.931 182.979 145.733 182.12 146.76 181.504C147.805 180.888 149.019 180.58 150.4 180.58C151.763 180.58 152.901 180.869 153.816 181.448C154.731 182.027 155.421 182.839 155.888 183.884C156.373 184.929 156.616 186.152 156.616 187.552V188.476H146.312V186.628H154.124L153.648 187.02C153.648 185.713 153.368 184.715 152.808 184.024C152.267 183.333 151.473 182.988 150.428 182.988C149.271 182.988 148.375 183.399 147.74 184.22C147.124 185.041 146.816 186.189 146.816 187.664V188.028C146.816 189.559 147.189 190.707 147.936 191.472C148.701 192.219 149.775 192.592 151.156 192.592C151.959 192.592 152.705 192.489 153.396 192.284C154.105 192.06 154.777 191.705 155.412 191.22L156.448 193.572C155.776 194.113 154.973 194.533 154.04 194.832C153.107 195.131 152.117 195.28 151.072 195.28ZM159.58 195V184.388C159.58 183.809 159.561 183.221 159.524 182.624C159.486 182.027 159.43 181.439 159.356 180.86H162.744L163.024 183.66H162.688C163.08 182.689 163.677 181.933 164.48 181.392C165.301 180.851 166.272 180.58 167.392 180.58C168.512 180.58 169.436 180.851 170.164 181.392C170.91 181.915 171.433 182.736 171.732 183.856H171.284C171.676 182.848 172.32 182.055 173.216 181.476C174.112 180.879 175.138 180.58 176.296 180.58C177.882 180.58 179.068 181.047 179.852 181.98C180.636 182.913 181.028 184.369 181.028 186.348V195H177.528V186.488C177.528 185.368 177.341 184.565 176.968 184.08C176.594 183.576 175.997 183.324 175.176 183.324C174.205 183.324 173.44 183.669 172.88 184.36C172.32 185.032 172.04 185.947 172.04 187.104V195H168.54V186.488C168.54 185.368 168.353 184.565 167.98 184.08C167.606 183.576 167.009 183.324 166.188 183.324C165.217 183.324 164.452 183.669 163.892 184.36C163.35 185.032 163.08 185.947 163.08 187.104V195H159.58ZM184.763 195V180.86H188.263V195H184.763ZM184.567 178.2V174.784H188.459V178.2H184.567ZM192.064 195V184.388C192.064 183.809 192.045 183.221 192.008 182.624C191.971 182.027 191.915 181.439 191.84 180.86H195.228L195.508 183.66H195.172C195.62 182.671 196.283 181.915 197.16 181.392C198.037 180.851 199.055 180.58 200.212 180.58C201.873 180.58 203.124 181.047 203.964 181.98C204.804 182.913 205.224 184.369 205.224 186.348V195H201.724V186.516C201.724 185.377 201.5 184.565 201.052 184.08C200.623 183.576 199.969 183.324 199.092 183.324C198.009 183.324 197.151 183.66 196.516 184.332C195.881 185.004 195.564 185.9 195.564 187.02V195H192.064ZM208.935 195V180.86H212.435V195H208.935ZM208.739 178.2V174.784H212.631V178.2H208.739Z" fill="white"/>
</svg>
