<svg width="428" height="399" viewBox="0 0 428 399" fill="none" xmlns="http://www.w3.org/2000/svg">
<path d="M429 33.8748C429 24 429 12.5 429 0C418 0 400.451 0.00686041 391.072 1.12057e-05H-0.225403V208.701C85.6742 266.75 261.859 389.344 354.281 397.387C385.232 400.067 409.798 394.001 429.068 384.118L429 33.8748Z" fill="#037EEE"/>
<path d="M226.372 195.28C224.151 195.28 222.284 194.869 220.772 194.048C219.26 193.227 218.121 192.06 217.356 190.548C216.591 189.036 216.208 187.244 216.208 185.172C216.208 183.081 216.619 181.28 217.44 179.768C218.261 178.237 219.437 177.061 220.968 176.24C222.517 175.4 224.375 174.98 226.54 174.98C227.977 174.98 229.237 175.176 230.32 175.568C231.403 175.941 232.355 176.492 233.176 177.22L231.972 180.02C231.375 179.553 230.805 179.18 230.264 178.9C229.723 178.62 229.163 178.424 228.584 178.312C228.005 178.181 227.333 178.116 226.568 178.116C224.403 178.116 222.76 178.732 221.64 179.964C220.539 181.177 219.988 182.923 219.988 185.2C219.988 187.477 220.511 189.213 221.556 190.408C222.62 191.603 224.281 192.2 226.54 192.2C227.305 192.2 228.071 192.125 228.836 191.976C229.62 191.827 230.385 191.612 231.132 191.332L230.46 192.844V186.936H225.84V184.304H233.456V193.796C232.541 194.263 231.449 194.627 230.18 194.888C228.911 195.149 227.641 195.28 226.372 195.28ZM243.683 195.28C242.227 195.28 240.967 194.981 239.903 194.384C238.839 193.787 238.008 192.937 237.411 191.836C236.832 190.735 236.543 189.428 236.543 187.916C236.543 186.404 236.832 185.107 237.411 184.024C238.008 182.923 238.839 182.073 239.903 181.476C240.967 180.879 242.227 180.58 243.683 180.58C245.139 180.58 246.399 180.879 247.463 181.476C248.545 182.073 249.376 182.923 249.955 184.024C250.552 185.107 250.851 186.404 250.851 187.916C250.851 189.428 250.552 190.735 249.955 191.836C249.376 192.937 248.545 193.787 247.463 194.384C246.399 194.981 245.139 195.28 243.683 195.28ZM243.683 192.592C244.784 192.592 245.661 192.209 246.315 191.444C246.968 190.66 247.295 189.484 247.295 187.916C247.295 186.348 246.968 185.181 246.315 184.416C245.661 183.651 244.784 183.268 243.683 183.268C242.581 183.268 241.704 183.651 241.051 184.416C240.397 185.181 240.071 186.348 240.071 187.916C240.071 189.484 240.397 190.66 241.051 191.444C241.704 192.209 242.581 192.592 243.683 192.592ZM260.253 195.28C258.797 195.28 257.537 194.981 256.473 194.384C255.409 193.787 254.578 192.937 253.981 191.836C253.402 190.735 253.113 189.428 253.113 187.916C253.113 186.404 253.402 185.107 253.981 184.024C254.578 182.923 255.409 182.073 256.473 181.476C257.537 180.879 258.797 180.58 260.253 180.58C261.709 180.58 262.969 180.879 264.033 181.476C265.116 182.073 265.946 182.923 266.525 184.024C267.122 185.107 267.421 186.404 267.421 187.916C267.421 189.428 267.122 190.735 266.525 191.836C265.946 192.937 265.116 193.787 264.033 194.384C262.969 194.981 261.709 195.28 260.253 195.28ZM260.253 192.592C261.354 192.592 262.232 192.209 262.885 191.444C263.538 190.66 263.865 189.484 263.865 187.916C263.865 186.348 263.538 185.181 262.885 184.416C262.232 183.651 261.354 183.268 260.253 183.268C259.152 183.268 258.274 183.651 257.621 184.416C256.968 185.181 256.641 186.348 256.641 187.916C256.641 189.484 256.968 190.66 257.621 191.444C258.274 192.209 259.152 192.592 260.253 192.592ZM276.991 201.272C275.684 201.272 274.499 201.132 273.435 200.852C272.39 200.572 271.456 200.143 270.635 199.564L271.391 197.044C271.932 197.399 272.492 197.688 273.071 197.912C273.65 198.136 274.247 198.304 274.863 198.416C275.479 198.528 276.104 198.584 276.739 198.584C278.046 198.584 279.016 198.257 279.651 197.604C280.304 196.969 280.631 196.055 280.631 194.86V191.472H280.911C280.612 192.443 280.006 193.217 279.091 193.796C278.195 194.375 277.159 194.664 275.983 194.664C274.714 194.664 273.603 194.384 272.651 193.824C271.718 193.245 270.99 192.424 270.467 191.36C269.944 190.296 269.683 189.045 269.683 187.608C269.683 186.171 269.944 184.929 270.467 183.884C270.99 182.82 271.718 182.008 272.651 181.448C273.603 180.869 274.714 180.58 275.983 180.58C277.178 180.58 278.214 180.869 279.091 181.448C279.987 182.008 280.584 182.773 280.883 183.744L280.631 183.576L280.911 180.86H284.299C284.224 181.439 284.168 182.027 284.131 182.624C284.094 183.221 284.075 183.809 284.075 184.388V194.44C284.075 196.661 283.468 198.351 282.255 199.508C281.06 200.684 279.306 201.272 276.991 201.272ZM276.935 191.976C278.055 191.976 278.942 191.603 279.595 190.856C280.267 190.091 280.603 189.008 280.603 187.608C280.603 186.208 280.267 185.135 279.595 184.388C278.942 183.641 278.055 183.268 276.935 183.268C275.796 183.268 274.891 183.641 274.219 184.388C273.547 185.135 273.211 186.208 273.211 187.608C273.211 189.008 273.547 190.091 274.219 190.856C274.891 191.603 275.796 191.976 276.935 191.976ZM287.857 195V174.392H291.357V195H287.857ZM301.99 195.28C299.619 195.28 297.762 194.627 296.418 193.32C295.074 192.013 294.402 190.221 294.402 187.944C294.402 186.469 294.691 185.181 295.27 184.08C295.849 182.979 296.651 182.12 297.678 181.504C298.723 180.888 299.937 180.58 301.318 180.58C302.681 180.58 303.819 180.869 304.734 181.448C305.649 182.027 306.339 182.839 306.806 183.884C307.291 184.929 307.534 186.152 307.534 187.552V188.476H297.23V186.628H305.042L304.566 187.02C304.566 185.713 304.286 184.715 303.726 184.024C303.185 183.333 302.391 182.988 301.346 182.988C300.189 182.988 299.293 183.399 298.658 184.22C298.042 185.041 297.734 186.189 297.734 187.664V188.028C297.734 189.559 298.107 190.707 298.854 191.472C299.619 192.219 300.693 192.592 302.074 192.592C302.877 192.592 303.623 192.489 304.314 192.284C305.023 192.06 305.695 191.705 306.33 191.22L307.366 193.572C306.694 194.113 305.891 194.533 304.958 194.832C304.025 195.131 303.035 195.28 301.99 195.28ZM327.981 195.28C325.76 195.28 323.893 194.869 322.381 194.048C320.869 193.227 319.731 192.06 318.965 190.548C318.2 189.036 317.817 187.244 317.817 185.172C317.817 183.081 318.228 181.28 319.049 179.768C319.871 178.237 321.047 177.061 322.577 176.24C324.127 175.4 325.984 174.98 328.149 174.98C329.587 174.98 330.847 175.176 331.929 175.568C333.012 175.941 333.964 176.492 334.785 177.22L333.581 180.02C332.984 179.553 332.415 179.18 331.873 178.9C331.332 178.62 330.772 178.424 330.193 178.312C329.615 178.181 328.943 178.116 328.177 178.116C326.012 178.116 324.369 178.732 323.249 179.964C322.148 181.177 321.597 182.923 321.597 185.2C321.597 187.477 322.12 189.213 323.165 190.408C324.229 191.603 325.891 192.2 328.149 192.2C328.915 192.2 329.68 192.125 330.445 191.976C331.229 191.827 331.995 191.612 332.741 191.332L332.069 192.844V186.936H327.449V184.304H335.065V193.796C334.151 194.263 333.059 194.627 331.789 194.888C330.52 195.149 329.251 195.28 327.981 195.28ZM345.74 195.28C343.369 195.28 341.512 194.627 340.168 193.32C338.824 192.013 338.152 190.221 338.152 187.944C338.152 186.469 338.441 185.181 339.02 184.08C339.599 182.979 340.401 182.12 341.428 181.504C342.473 180.888 343.687 180.58 345.068 180.58C346.431 180.58 347.569 180.869 348.484 181.448C349.399 182.027 350.089 182.839 350.556 183.884C351.041 184.929 351.284 186.152 351.284 187.552V188.476H340.98V186.628H348.792L348.316 187.02C348.316 185.713 348.036 184.715 347.476 184.024C346.935 183.333 346.141 182.988 345.096 182.988C343.939 182.988 343.043 183.399 342.408 184.22C341.792 185.041 341.484 186.189 341.484 187.664V188.028C341.484 189.559 341.857 190.707 342.604 191.472C343.369 192.219 344.443 192.592 345.824 192.592C346.627 192.592 347.373 192.489 348.064 192.284C348.773 192.06 349.445 191.705 350.08 191.22L351.116 193.572C350.444 194.113 349.641 194.533 348.708 194.832C347.775 195.131 346.785 195.28 345.74 195.28ZM354.248 195V184.388C354.248 183.809 354.229 183.221 354.192 182.624C354.154 182.027 354.098 181.439 354.024 180.86H357.412L357.692 183.66H357.356C357.748 182.689 358.345 181.933 359.148 181.392C359.969 180.851 360.94 180.58 362.06 180.58C363.18 180.58 364.104 180.851 364.832 181.392C365.578 181.915 366.101 182.736 366.4 183.856H365.952C366.344 182.848 366.988 182.055 367.884 181.476C368.78 180.879 369.806 180.58 370.964 180.58C372.55 180.58 373.736 181.047 374.52 181.98C375.304 182.913 375.696 184.369 375.696 186.348V195H372.196V186.488C372.196 185.368 372.009 184.565 371.636 184.08C371.262 183.576 370.665 183.324 369.844 183.324C368.873 183.324 368.108 183.669 367.548 184.36C366.988 185.032 366.708 185.947 366.708 187.104V195H363.208V186.488C363.208 185.368 363.021 184.565 362.648 184.08C362.274 183.576 361.677 183.324 360.856 183.324C359.885 183.324 359.12 183.669 358.56 184.36C358.018 185.032 357.748 185.947 357.748 187.104V195H354.248ZM379.431 195V180.86H382.931V195H379.431ZM379.235 178.2V174.784H383.127V178.2H379.235ZM386.732 195V184.388C386.732 183.809 386.713 183.221 386.676 182.624C386.639 182.027 386.583 181.439 386.508 180.86H389.896L390.176 183.66H389.84C390.288 182.671 390.951 181.915 391.828 181.392C392.705 180.851 393.723 180.58 394.88 180.58C396.541 180.58 397.792 181.047 398.632 181.98C399.472 182.913 399.892 184.369 399.892 186.348V195H396.392V186.516C396.392 185.377 396.168 184.565 395.72 184.08C395.291 183.576 394.637 183.324 393.76 183.324C392.677 183.324 391.819 183.66 391.184 184.332C390.549 185.004 390.232 185.9 390.232 187.02V195H386.732ZM403.603 195V180.86H407.103V195H403.603ZM403.407 178.2V174.784H407.299V178.2H403.407Z" fill="white"/>
<line x1="176" y1="209.5" x2="409" y2="209.5" stroke="white"/>
<path d="M223.674 233V221.72H228.266C229.45 221.72 230.362 222.008 231.002 222.584C231.642 223.149 231.962 223.939 231.962 224.952C231.962 225.944 231.642 226.733 231.002 227.32C230.362 227.896 229.45 228.184 228.266 228.184H225.002V233H223.674ZM225.002 227.08H228.138C228.959 227.08 229.578 226.893 229.994 226.52C230.42 226.147 230.634 225.624 230.634 224.952C230.634 224.269 230.42 223.741 229.994 223.368C229.578 222.995 228.959 222.808 228.138 222.808H225.002V227.08ZM233.763 233V226.904C233.763 226.584 233.753 226.259 233.731 225.928C233.721 225.597 233.699 225.277 233.667 224.968H234.915L235.075 226.92L234.851 226.936C234.958 226.456 235.145 226.061 235.411 225.752C235.678 225.443 235.993 225.213 236.355 225.064C236.718 224.904 237.097 224.824 237.491 224.824C237.651 224.824 237.79 224.829 237.907 224.84C238.035 224.851 238.153 224.877 238.259 224.92L238.243 226.072C238.083 226.019 237.934 225.987 237.795 225.976C237.667 225.955 237.518 225.944 237.347 225.944C236.878 225.944 236.467 226.056 236.115 226.28C235.774 226.504 235.513 226.792 235.331 227.144C235.161 227.496 235.075 227.869 235.075 228.264V233H233.763ZM242.81 233.144C242.042 233.144 241.37 232.979 240.794 232.648C240.229 232.307 239.791 231.827 239.482 231.208C239.173 230.579 239.018 229.837 239.018 228.984C239.018 228.12 239.173 227.379 239.482 226.76C239.791 226.141 240.229 225.667 240.794 225.336C241.37 224.995 242.042 224.824 242.81 224.824C243.589 224.824 244.261 224.995 244.826 225.336C245.402 225.667 245.845 226.141 246.154 226.76C246.474 227.379 246.634 228.12 246.634 228.984C246.634 229.837 246.474 230.579 246.154 231.208C245.845 231.827 245.402 232.307 244.826 232.648C244.261 232.979 243.589 233.144 242.81 233.144ZM242.81 232.088C243.578 232.088 244.186 231.827 244.634 231.304C245.082 230.771 245.306 229.997 245.306 228.984C245.306 227.96 245.077 227.187 244.618 226.664C244.17 226.131 243.567 225.864 242.81 225.864C242.053 225.864 241.45 226.131 241.002 226.664C240.554 227.187 240.33 227.96 240.33 228.984C240.33 229.997 240.554 230.771 241.002 231.304C241.45 231.827 242.053 232.088 242.81 232.088ZM248.993 233V225.976H247.425V224.968H249.345L248.993 225.304V223.96C248.993 223.053 249.222 222.36 249.681 221.88C250.139 221.4 250.795 221.16 251.649 221.16C251.862 221.16 252.081 221.181 252.305 221.224C252.539 221.256 252.731 221.304 252.881 221.368V222.44C252.753 222.387 252.593 222.344 252.401 222.312C252.219 222.269 252.033 222.248 251.841 222.248C251.51 222.248 251.227 222.317 250.993 222.456C250.758 222.584 250.582 222.781 250.465 223.048C250.347 223.315 250.289 223.656 250.289 224.072V225.24L250.081 224.968H252.529V225.976H250.289V233H248.993ZM257.332 233.144C256.073 233.144 255.081 232.781 254.356 232.056C253.631 231.32 253.268 230.301 253.268 229C253.268 228.157 253.428 227.427 253.748 226.808C254.068 226.179 254.516 225.693 255.092 225.352C255.668 225 256.329 224.824 257.076 224.824C257.812 224.824 258.431 224.979 258.932 225.288C259.433 225.597 259.817 226.04 260.084 226.616C260.351 227.181 260.484 227.853 260.484 228.632V229.112H254.26V228.296H259.636L259.364 228.504C259.364 227.651 259.172 226.984 258.788 226.504C258.404 226.024 257.833 225.784 257.076 225.784C256.276 225.784 255.652 226.067 255.204 226.632C254.756 227.187 254.532 227.939 254.532 228.888V229.032C254.532 230.035 254.777 230.797 255.268 231.32C255.769 231.832 256.468 232.088 257.364 232.088C257.844 232.088 258.292 232.019 258.708 231.88C259.135 231.731 259.54 231.491 259.924 231.16L260.372 232.072C260.02 232.413 259.572 232.68 259.028 232.872C258.495 233.053 257.929 233.144 257.332 233.144ZM265.139 233.144C264.499 233.144 263.902 233.059 263.347 232.888C262.792 232.707 262.334 232.456 261.971 232.136L262.419 231.224C262.814 231.533 263.24 231.763 263.699 231.912C264.168 232.061 264.654 232.136 265.155 232.136C265.795 232.136 266.275 232.024 266.595 231.8C266.926 231.565 267.091 231.245 267.091 230.84C267.091 230.531 266.984 230.285 266.771 230.104C266.568 229.912 266.232 229.763 265.763 229.656L264.275 229.352C263.592 229.203 263.08 228.952 262.739 228.6C262.398 228.237 262.227 227.779 262.227 227.224C262.227 226.755 262.35 226.344 262.595 225.992C262.84 225.629 263.198 225.347 263.667 225.144C264.136 224.931 264.686 224.824 265.315 224.824C265.902 224.824 266.44 224.915 266.931 225.096C267.432 225.267 267.848 225.517 268.179 225.848L267.715 226.744C267.395 226.435 267.027 226.205 266.611 226.056C266.206 225.896 265.784 225.816 265.347 225.816C264.718 225.816 264.243 225.944 263.923 226.2C263.614 226.445 263.459 226.771 263.459 227.176C263.459 227.485 263.555 227.741 263.747 227.944C263.95 228.136 264.259 228.28 264.675 228.376L266.163 228.68C266.888 228.84 267.427 229.091 267.779 229.432C268.142 229.763 268.323 230.211 268.323 230.776C268.323 231.256 268.19 231.677 267.923 232.04C267.656 232.392 267.283 232.664 266.803 232.856C266.334 233.048 265.779 233.144 265.139 233.144ZM273.077 233.144C272.437 233.144 271.839 233.059 271.285 232.888C270.73 232.707 270.271 232.456 269.909 232.136L270.357 231.224C270.751 231.533 271.178 231.763 271.637 231.912C272.106 232.061 272.591 232.136 273.093 232.136C273.733 232.136 274.213 232.024 274.533 231.8C274.863 231.565 275.029 231.245 275.029 230.84C275.029 230.531 274.922 230.285 274.709 230.104C274.506 229.912 274.17 229.763 273.701 229.656L272.213 229.352C271.53 229.203 271.018 228.952 270.677 228.6C270.335 228.237 270.165 227.779 270.165 227.224C270.165 226.755 270.287 226.344 270.533 225.992C270.778 225.629 271.135 225.347 271.605 225.144C272.074 224.931 272.623 224.824 273.253 224.824C273.839 224.824 274.378 224.915 274.869 225.096C275.37 225.267 275.786 225.517 276.117 225.848L275.653 226.744C275.333 226.435 274.965 226.205 274.549 226.056C274.143 225.896 273.722 225.816 273.285 225.816C272.655 225.816 272.181 225.944 271.861 226.2C271.551 226.445 271.397 226.771 271.397 227.176C271.397 227.485 271.493 227.741 271.685 227.944C271.887 228.136 272.197 228.28 272.613 228.376L274.101 228.68C274.826 228.84 275.365 229.091 275.717 229.432C276.079 229.763 276.261 230.211 276.261 230.776C276.261 231.256 276.127 231.677 275.861 232.04C275.594 232.392 275.221 232.664 274.741 232.856C274.271 233.048 273.717 233.144 273.077 233.144ZM278.342 233V224.968H279.638V233H278.342ZM278.182 223.144V221.688H279.782V223.144H278.182ZM285.451 233.144C284.683 233.144 284.011 232.979 283.435 232.648C282.869 232.307 282.432 231.827 282.123 231.208C281.813 230.579 281.659 229.837 281.659 228.984C281.659 228.12 281.813 227.379 282.123 226.76C282.432 226.141 282.869 225.667 283.435 225.336C284.011 224.995 284.683 224.824 285.451 224.824C286.229 224.824 286.901 224.995 287.467 225.336C288.043 225.667 288.485 226.141 288.795 226.76C289.115 227.379 289.275 228.12 289.275 228.984C289.275 229.837 289.115 230.579 288.795 231.208C288.485 231.827 288.043 232.307 287.467 232.648C286.901 232.979 286.229 233.144 285.451 233.144ZM285.451 232.088C286.219 232.088 286.827 231.827 287.275 231.304C287.723 230.771 287.947 229.997 287.947 228.984C287.947 227.96 287.717 227.187 287.259 226.664C286.811 226.131 286.208 225.864 285.451 225.864C284.693 225.864 284.091 226.131 283.643 226.664C283.195 227.187 282.971 227.96 282.971 228.984C282.971 229.997 283.195 230.771 283.643 231.304C284.091 231.827 284.693 232.088 285.451 232.088ZM291.295 233V226.824C291.295 226.525 291.279 226.221 291.247 225.912C291.226 225.592 291.199 225.277 291.167 224.968H292.415L292.575 226.728H292.383C292.618 226.109 292.991 225.64 293.503 225.32C294.026 224.989 294.629 224.824 295.311 224.824C296.261 224.824 296.975 225.08 297.455 225.592C297.946 226.093 298.191 226.888 298.191 227.976V233H296.895V228.056C296.895 227.299 296.741 226.749 296.431 226.408C296.133 226.056 295.663 225.88 295.023 225.88C294.277 225.88 293.685 226.109 293.247 226.568C292.81 227.027 292.591 227.64 292.591 228.408V233H291.295ZM303.726 233.144C303.012 233.144 302.388 232.979 301.854 232.648C301.321 232.307 300.905 231.827 300.606 231.208C300.318 230.589 300.174 229.848 300.174 228.984C300.174 228.109 300.318 227.363 300.606 226.744C300.905 226.125 301.321 225.651 301.854 225.32C302.388 224.989 303.012 224.824 303.726 224.824C304.452 224.824 305.076 225.011 305.598 225.384C306.132 225.747 306.484 226.243 306.654 226.872H306.462L306.638 224.968H307.886C307.854 225.277 307.822 225.592 307.79 225.912C307.769 226.221 307.758 226.525 307.758 226.824V233H306.462V231.112H306.638C306.468 231.741 306.116 232.237 305.582 232.6C305.049 232.963 304.43 233.144 303.726 233.144ZM303.982 232.088C304.75 232.088 305.358 231.827 305.806 231.304C306.254 230.771 306.478 229.997 306.478 228.984C306.478 227.96 306.254 227.187 305.806 226.664C305.358 226.131 304.75 225.864 303.982 225.864C303.225 225.864 302.617 226.131 302.158 226.664C301.71 227.187 301.486 227.96 301.486 228.984C301.486 229.997 301.71 230.771 302.158 231.304C302.617 231.827 303.225 232.088 303.982 232.088ZM310.264 233V221.224H311.56V233H310.264ZM317.272 233L322.248 221.72H323.4L328.456 233H327.08L325.672 229.784L326.264 230.12H319.368L320.008 229.784L318.632 233H317.272ZM322.808 223.24L320.216 229.32L319.832 229.032H325.784L325.496 229.32L322.84 223.24H322.808ZM330.014 236.456V226.824C330.014 226.525 329.998 226.221 329.966 225.912C329.945 225.592 329.918 225.277 329.886 224.968H331.134L331.31 226.872H331.118C331.289 226.243 331.635 225.747 332.158 225.384C332.681 225.011 333.305 224.824 334.03 224.824C334.755 224.824 335.379 224.989 335.902 225.32C336.435 225.651 336.851 226.125 337.15 226.744C337.449 227.363 337.598 228.109 337.598 228.984C337.598 229.848 337.449 230.589 337.15 231.208C336.862 231.827 336.451 232.307 335.918 232.648C335.385 232.979 334.755 233.144 334.03 233.144C333.315 233.144 332.697 232.963 332.174 232.6C331.651 232.237 331.305 231.741 331.134 231.112H331.31V236.456H330.014ZM333.774 232.088C334.542 232.088 335.15 231.827 335.598 231.304C336.057 230.771 336.286 229.997 336.286 228.984C336.286 227.96 336.057 227.187 335.598 226.664C335.15 226.131 334.542 225.864 333.774 225.864C333.017 225.864 332.409 226.131 331.95 226.664C331.502 227.187 331.278 227.96 331.278 228.984C331.278 229.997 331.502 230.771 331.95 231.304C332.409 231.827 333.017 232.088 333.774 232.088ZM339.608 236.456V226.824C339.608 226.525 339.592 226.221 339.56 225.912C339.538 225.592 339.512 225.277 339.48 224.968H340.728L340.904 226.872H340.712C340.882 226.243 341.229 225.747 341.752 225.384C342.274 225.011 342.898 224.824 343.624 224.824C344.349 224.824 344.973 224.989 345.496 225.32C346.029 225.651 346.445 226.125 346.744 226.744C347.042 227.363 347.192 228.109 347.192 228.984C347.192 229.848 347.042 230.589 346.744 231.208C346.456 231.827 346.045 232.307 345.512 232.648C344.978 232.979 344.349 233.144 343.624 233.144C342.909 233.144 342.29 232.963 341.768 232.6C341.245 232.237 340.898 231.741 340.728 231.112H340.904V236.456H339.608ZM343.368 232.088C344.136 232.088 344.744 231.827 345.192 231.304C345.65 230.771 345.88 229.997 345.88 228.984C345.88 227.96 345.65 227.187 345.192 226.664C344.744 226.131 344.136 225.864 343.368 225.864C342.61 225.864 342.002 226.131 341.544 226.664C341.096 227.187 340.872 227.96 340.872 228.984C340.872 229.997 341.096 230.771 341.544 231.304C342.002 231.827 342.61 232.088 343.368 232.088ZM353.789 233V225.976H352.221V224.968H354.141L353.789 225.304V223.96C353.789 223.053 354.019 222.36 354.477 221.88C354.936 221.4 355.592 221.16 356.445 221.16C356.659 221.16 356.877 221.181 357.101 221.224C357.336 221.256 357.528 221.304 357.677 221.368V222.44C357.549 222.387 357.389 222.344 357.197 222.312C357.016 222.269 356.829 222.248 356.637 222.248C356.307 222.248 356.024 222.317 355.789 222.456C355.555 222.584 355.379 222.781 355.261 223.048C355.144 223.315 355.085 223.656 355.085 224.072V225.24L354.877 224.968H357.325V225.976H355.085V233H353.789ZM361.857 233.144C361.089 233.144 360.417 232.979 359.841 232.648C359.276 232.307 358.838 231.827 358.529 231.208C358.22 230.579 358.065 229.837 358.065 228.984C358.065 228.12 358.22 227.379 358.529 226.76C358.838 226.141 359.276 225.667 359.841 225.336C360.417 224.995 361.089 224.824 361.857 224.824C362.636 224.824 363.308 224.995 363.873 225.336C364.449 225.667 364.892 226.141 365.201 226.76C365.521 227.379 365.681 228.12 365.681 228.984C365.681 229.837 365.521 230.579 365.201 231.208C364.892 231.827 364.449 232.307 363.873 232.648C363.308 232.979 362.636 233.144 361.857 233.144ZM361.857 232.088C362.625 232.088 363.233 231.827 363.681 231.304C364.129 230.771 364.353 229.997 364.353 228.984C364.353 227.96 364.124 227.187 363.665 226.664C363.217 226.131 362.614 225.864 361.857 225.864C361.1 225.864 360.497 226.131 360.049 226.664C359.601 227.187 359.377 227.96 359.377 228.984C359.377 229.997 359.601 230.771 360.049 231.304C360.497 231.827 361.1 232.088 361.857 232.088ZM367.67 233V226.904C367.67 226.584 367.659 226.259 367.638 225.928C367.627 225.597 367.606 225.277 367.574 224.968H368.822L368.982 226.92L368.758 226.936C368.864 226.456 369.051 226.061 369.318 225.752C369.584 225.443 369.899 225.213 370.262 225.064C370.624 224.904 371.003 224.824 371.398 224.824C371.558 224.824 371.696 224.829 371.814 224.84C371.942 224.851 372.059 224.877 372.166 224.92L372.15 226.072C371.99 226.019 371.84 225.987 371.702 225.976C371.574 225.955 371.424 225.944 371.254 225.944C370.784 225.944 370.374 226.056 370.022 226.28C369.68 226.504 369.419 226.792 369.238 227.144C369.067 227.496 368.982 227.869 368.982 228.264V233H367.67ZM377.366 236.632L377.062 235.56C377.563 235.443 377.979 235.304 378.31 235.144C378.651 234.995 378.934 234.792 379.158 234.536C379.382 234.28 379.574 233.96 379.734 233.576L380.15 232.632L380.118 233.176L376.614 224.968H378.022L380.918 232.024H380.502L383.366 224.968H384.726L381.014 233.672C380.801 234.184 380.566 234.611 380.31 234.952C380.054 235.304 379.777 235.587 379.478 235.8C379.19 236.024 378.87 236.2 378.518 236.328C378.166 236.456 377.782 236.557 377.366 236.632ZM389.373 233.144C388.605 233.144 387.933 232.979 387.357 232.648C386.791 232.307 386.354 231.827 386.045 231.208C385.735 230.579 385.581 229.837 385.581 228.984C385.581 228.12 385.735 227.379 386.045 226.76C386.354 226.141 386.791 225.667 387.357 225.336C387.933 224.995 388.605 224.824 389.373 224.824C390.151 224.824 390.823 224.995 391.389 225.336C391.965 225.667 392.407 226.141 392.717 226.76C393.037 227.379 393.197 228.12 393.197 228.984C393.197 229.837 393.037 230.579 392.717 231.208C392.407 231.827 391.965 232.307 391.389 232.648C390.823 232.979 390.151 233.144 389.373 233.144ZM389.373 232.088C390.141 232.088 390.749 231.827 391.197 231.304C391.645 230.771 391.869 229.997 391.869 228.984C391.869 227.96 391.639 227.187 391.181 226.664C390.733 226.131 390.13 225.864 389.373 225.864C388.615 225.864 388.013 226.131 387.565 226.664C387.117 227.187 386.893 227.96 386.893 228.984C386.893 229.997 387.117 230.771 387.565 231.304C388.013 231.827 388.615 232.088 389.373 232.088ZM398.049 233.144C397.1 233.144 396.38 232.883 395.889 232.36C395.409 231.837 395.169 231.037 395.169 229.96V224.968H396.465V229.928C396.465 230.664 396.614 231.208 396.913 231.56C397.212 231.901 397.676 232.072 398.305 232.072C399.009 232.072 399.574 231.843 400.001 231.384C400.428 230.925 400.641 230.312 400.641 229.544V224.968H401.937V233H400.673V231.192H400.881C400.657 231.811 400.294 232.291 399.793 232.632C399.302 232.973 398.721 233.144 398.049 233.144ZM404.42 233V226.904C404.42 226.584 404.409 226.259 404.388 225.928C404.377 225.597 404.356 225.277 404.324 224.968H405.572L405.732 226.92L405.508 226.936C405.614 226.456 405.801 226.061 406.068 225.752C406.334 225.443 406.649 225.213 407.012 225.064C407.374 224.904 407.753 224.824 408.148 224.824C408.308 224.824 408.446 224.829 408.564 224.84C408.692 224.851 408.809 224.877 408.916 224.92L408.9 226.072C408.74 226.019 408.59 225.987 408.452 225.976C408.324 225.955 408.174 225.944 408.004 225.944C407.534 225.944 407.124 226.056 406.772 226.28C406.43 226.504 406.169 226.792 405.988 227.144C405.817 227.496 405.732 227.869 405.732 228.264V233H404.42ZM308.872 256.056C308.563 255.853 308.243 255.592 307.912 255.272C307.582 254.952 307.267 254.595 306.968 254.2C306.68 253.805 306.43 253.411 306.216 253.016L307.384 252.584C307.662 253.139 308.019 253.64 308.456 254.088C308.894 254.547 309.336 254.941 309.784 255.272L308.872 256.056ZM300.648 247.352C300.648 246.157 300.851 245.133 301.256 244.28C301.672 243.416 302.264 242.749 303.032 242.28C303.811 241.811 304.744 241.576 305.832 241.576C306.888 241.576 307.806 241.811 308.584 242.28C309.363 242.749 309.96 243.416 310.376 244.28C310.803 245.133 311.016 246.152 311.016 247.336C311.016 248.531 310.803 249.56 310.376 250.424C309.95 251.288 309.347 251.96 308.568 252.44C307.8 252.909 306.888 253.144 305.832 253.144C304.744 253.144 303.816 252.909 303.048 252.44C302.28 251.96 301.688 251.288 301.272 250.424C300.856 249.56 300.648 248.536 300.648 247.352ZM302.04 247.352C302.04 248.803 302.36 249.939 303 250.76C303.64 251.571 304.584 251.976 305.832 251.976C307.027 251.976 307.955 251.571 308.616 250.76C309.288 249.939 309.624 248.803 309.624 247.352C309.624 245.891 309.294 244.76 308.632 243.96C307.971 243.149 307.038 242.744 305.832 242.744C304.584 242.744 303.64 243.149 303 243.96C302.36 244.76 302.04 245.891 302.04 247.352ZM316.112 253.144C315.162 253.144 314.442 252.883 313.952 252.36C313.472 251.837 313.232 251.037 313.232 249.96V244.968H314.528V249.928C314.528 250.664 314.677 251.208 314.976 251.56C315.274 251.901 315.738 252.072 316.368 252.072C317.072 252.072 317.637 251.843 318.064 251.384C318.49 250.925 318.704 250.312 318.704 249.544V244.968H320V253H318.736V251.192H318.944C318.72 251.811 318.357 252.291 317.856 252.632C317.365 252.973 316.784 253.144 316.112 253.144ZM326.082 253.144C324.823 253.144 323.831 252.781 323.106 252.056C322.381 251.32 322.018 250.301 322.018 249C322.018 248.157 322.178 247.427 322.498 246.808C322.818 246.179 323.266 245.693 323.842 245.352C324.418 245 325.079 244.824 325.826 244.824C326.562 244.824 327.181 244.979 327.682 245.288C328.183 245.597 328.567 246.04 328.834 246.616C329.101 247.181 329.234 247.853 329.234 248.632V249.112H323.01V248.296H328.386L328.114 248.504C328.114 247.651 327.922 246.984 327.538 246.504C327.154 246.024 326.583 245.784 325.826 245.784C325.026 245.784 324.402 246.067 323.954 246.632C323.506 247.187 323.282 247.939 323.282 248.888V249.032C323.282 250.035 323.527 250.797 324.018 251.32C324.519 251.832 325.218 252.088 326.114 252.088C326.594 252.088 327.042 252.019 327.458 251.88C327.885 251.731 328.29 251.491 328.674 251.16L329.122 252.072C328.77 252.413 328.322 252.68 327.778 252.872C327.245 253.053 326.679 253.144 326.082 253.144ZM331.185 253V246.904C331.185 246.584 331.174 246.259 331.153 245.928C331.142 245.597 331.121 245.277 331.089 244.968H332.337L332.497 246.92L332.273 246.936C332.38 246.456 332.566 246.061 332.833 245.752C333.1 245.443 333.414 245.213 333.777 245.064C334.14 244.904 334.518 244.824 334.913 244.824C335.073 244.824 335.212 244.829 335.329 244.84C335.457 244.851 335.574 244.877 335.681 244.92L335.665 246.072C335.505 246.019 335.356 245.987 335.217 245.976C335.089 245.955 334.94 245.944 334.769 245.944C334.3 245.944 333.889 246.056 333.537 246.28C333.196 246.504 332.934 246.792 332.753 247.144C332.582 247.496 332.497 247.869 332.497 248.264V253H331.185ZM337.194 256.632L336.89 255.56C337.391 255.443 337.807 255.304 338.138 255.144C338.479 254.995 338.762 254.792 338.986 254.536C339.21 254.28 339.402 253.96 339.562 253.576L339.978 252.632L339.946 253.176L336.442 244.968H337.85L340.746 252.024H340.33L343.194 244.968H344.554L340.842 253.672C340.629 254.184 340.394 254.611 340.138 254.952C339.882 255.304 339.605 255.587 339.306 255.8C339.018 256.024 338.698 256.2 338.346 256.328C337.994 256.456 337.61 256.557 337.194 256.632ZM354.01 253.144C353.103 253.144 352.293 253.027 351.578 252.792C350.863 252.557 350.239 252.221 349.706 251.784L350.186 250.728C350.559 251.005 350.933 251.24 351.306 251.432C351.69 251.613 352.101 251.752 352.538 251.848C352.975 251.933 353.466 251.976 354.01 251.976C354.959 251.976 355.663 251.8 356.122 251.448C356.581 251.096 356.81 250.627 356.81 250.04C356.81 249.539 356.65 249.155 356.33 248.888C356.01 248.621 355.45 248.408 354.65 248.248L352.97 247.912C351.935 247.699 351.162 247.352 350.65 246.872C350.149 246.392 349.898 245.741 349.898 244.92C349.898 244.248 350.069 243.661 350.41 243.16C350.762 242.659 351.253 242.269 351.882 241.992C352.511 241.715 353.242 241.576 354.074 241.576C354.874 241.576 355.605 241.699 356.266 241.944C356.927 242.179 357.493 242.525 357.962 242.984L357.498 244.008C356.997 243.56 356.469 243.24 355.914 243.048C355.37 242.845 354.751 242.744 354.058 242.744C353.183 242.744 352.49 242.936 351.978 243.32C351.477 243.693 351.226 244.205 351.226 244.856C351.226 245.379 351.386 245.789 351.706 246.088C352.026 246.376 352.554 246.595 353.29 246.744L354.986 247.08C356.074 247.304 356.874 247.64 357.386 248.088C357.898 248.536 358.154 249.165 358.154 249.976C358.154 250.595 357.983 251.144 357.642 251.624C357.311 252.104 356.837 252.477 356.218 252.744C355.599 253.011 354.863 253.144 354.01 253.144ZM363.451 253.144C362.683 253.144 362.011 252.979 361.435 252.648C360.869 252.307 360.432 251.827 360.123 251.208C359.813 250.579 359.659 249.837 359.659 248.984C359.659 248.12 359.813 247.379 360.123 246.76C360.432 246.141 360.869 245.667 361.435 245.336C362.011 244.995 362.683 244.824 363.451 244.824C364.229 244.824 364.901 244.995 365.467 245.336C366.043 245.667 366.485 246.141 366.795 246.76C367.115 247.379 367.275 248.12 367.275 248.984C367.275 249.837 367.115 250.579 366.795 251.208C366.485 251.827 366.043 252.307 365.467 252.648C364.901 252.979 364.229 253.144 363.451 253.144ZM363.451 252.088C364.219 252.088 364.827 251.827 365.275 251.304C365.723 250.771 365.947 249.997 365.947 248.984C365.947 247.96 365.717 247.187 365.259 246.664C364.811 246.131 364.208 245.864 363.451 245.864C362.693 245.864 362.091 246.131 361.643 246.664C361.195 247.187 360.971 247.96 360.971 248.984C360.971 249.997 361.195 250.771 361.643 251.304C362.091 251.827 362.693 252.088 363.451 252.088ZM369.295 253V241.224H370.591V253H369.295ZM375.94 253.144C374.99 253.144 374.27 252.883 373.78 252.36C373.3 251.837 373.06 251.037 373.06 249.96V244.968H374.356V249.928C374.356 250.664 374.505 251.208 374.804 251.56C375.102 251.901 375.566 252.072 376.196 252.072C376.9 252.072 377.465 251.843 377.892 251.384C378.318 250.925 378.532 250.312 378.532 249.544V244.968H379.828V253H378.564V251.192H378.772C378.548 251.811 378.185 252.291 377.684 252.632C377.193 252.973 376.612 253.144 375.94 253.144ZM385.19 253.144C384.401 253.144 383.798 252.92 383.382 252.472C382.966 252.013 382.758 251.325 382.758 250.408V245.976H381.19V244.968H382.758V242.776L384.054 242.408V244.968H386.358V245.976H384.054V250.264C384.054 250.904 384.161 251.363 384.374 251.64C384.598 251.907 384.929 252.04 385.366 252.04C385.569 252.04 385.75 252.024 385.91 251.992C386.07 251.949 386.214 251.901 386.342 251.848V252.936C386.193 253 386.011 253.048 385.798 253.08C385.595 253.123 385.393 253.144 385.19 253.144ZM387.936 253V244.968H389.232V253H387.936ZM387.776 243.144V241.688H389.376V243.144H387.776ZM395.044 253.144C394.276 253.144 393.604 252.979 393.028 252.648C392.463 252.307 392.026 251.827 391.716 251.208C391.407 250.579 391.252 249.837 391.252 248.984C391.252 248.12 391.407 247.379 391.716 246.76C392.026 246.141 392.463 245.667 393.028 245.336C393.604 244.995 394.276 244.824 395.044 244.824C395.823 244.824 396.495 244.995 397.06 245.336C397.636 245.667 398.079 246.141 398.388 246.76C398.708 247.379 398.868 248.12 398.868 248.984C398.868 249.837 398.708 250.579 398.388 251.208C398.079 251.827 397.636 252.307 397.06 252.648C396.495 252.979 395.823 253.144 395.044 253.144ZM395.044 252.088C395.812 252.088 396.42 251.827 396.868 251.304C397.316 250.771 397.54 249.997 397.54 248.984C397.54 247.96 397.311 247.187 396.852 246.664C396.404 246.131 395.802 245.864 395.044 245.864C394.287 245.864 393.684 246.131 393.236 246.664C392.788 247.187 392.564 247.96 392.564 248.984C392.564 249.997 392.788 250.771 393.236 251.304C393.684 251.827 394.287 252.088 395.044 252.088ZM400.889 253V246.824C400.889 246.525 400.873 246.221 400.841 245.912C400.82 245.592 400.793 245.277 400.761 244.968H402.009L402.169 246.728H401.977C402.212 246.109 402.585 245.64 403.097 245.32C403.62 244.989 404.222 244.824 404.905 244.824C405.854 244.824 406.569 245.08 407.049 245.592C407.54 246.093 407.785 246.888 407.785 247.976V253H406.489V248.056C406.489 247.299 406.334 246.749 406.025 246.408C405.726 246.056 405.257 245.88 404.617 245.88C403.87 245.88 403.278 246.109 402.841 246.568C402.404 247.027 402.185 247.64 402.185 248.408V253H400.889Z" fill="white"/>
</svg>
